<?xml version="1.0" encoding="UTF-8"?>
<svg id="Calque_1" data-name="Calque 1" xmlns="http://www.w3.org/2000/svg" viewBox="0 0 439.84 1633.84">
  <defs>
    <style>
      .cls-1, .cls-2 {
        fill: #337d8a;
      }

      .cls-3 {
        fill: #0c2941;
      }

      .cls-4, .cls-5 {
        fill: #ebd19b;
      }

      .cls-2, .cls-5 {
        fill-rule: evenodd;
      }

      .cls-6 {
        fill: #e5bf6d;
      }

      .cls-7 {
        fill: #5ab1c0;
      }
    </style>
  </defs>
  <path class="cls-6" d="M436.98,847.17c-6.82,27.06-22.3,36.57-52.38,75.63-9.89,12.85-21.11,28.57-32.66,47.2v-.24c-11.54-18.62-22.76-34.33-32.65-47.17-30.08-39.07-45.56-48.57-52.38-75.63-5.5-21.82-1.65-40.33,0-47.85,5.22-23.83,16.25-35.78,41.48-70.32,10.25-14.03,25.53-35.48,43.56-62.95v.24c18.02,27.46,33.29,48.9,43.54,62.93,25.23,34.54,36.26,46.5,41.48,70.32,1.65,7.52,5.5,26.02,0,47.85Z"/>
  <path class="cls-4" d="M172.92,1178.3c-6.82,27.06-22.3,36.57-52.38,75.63-9.9,12.85-21.12,28.57-32.66,47.2v-.24c-11.54-18.62-22.76-34.33-32.65-47.17-30.08-39.07-45.56-48.57-52.38-75.63-5.5-21.82-1.65-40.33,0-47.85,5.22-23.83,16.25-35.78,41.48-70.32,10.25-14.03,25.53-35.48,43.56-62.95v.24c18.02,27.46,33.29,48.9,43.54,62.92,25.23,34.54,36.26,46.5,41.48,70.32,1.65,7.52,5.5,26.02,0,47.85Z"/>
  <path class="cls-3" d="M304.95,1343.87c-6.82,27.06-22.3,36.57-52.38,75.63-9.89,12.85-21.11,28.57-32.66,47.2v-.24c-11.54-18.62-22.76-34.33-32.65-47.17-30.08-39.07-45.56-48.57-52.38-75.63-5.5-21.82-1.65-40.33,0-47.84,5.22-23.83,16.25-35.78,41.48-70.32,10.25-14.03,25.53-35.48,43.56-62.95v.24c18.02,27.46,33.29,48.9,43.54,62.93,25.23,34.54,36.26,46.49,41.48,70.32,1.65,7.52,5.5,26.02,0,47.84Z"/>
  <path class="cls-7" d="M436.98,1178.3c-6.82,27.06-22.3,36.57-52.38,75.63-9.89,12.85-21.11,28.57-32.66,47.2v-.24c-11.54-18.62-22.76-34.33-32.65-47.17-30.08-39.07-45.56-48.57-52.38-75.63-5.5-21.82-1.65-40.33,0-47.85,5.22-23.83,16.25-35.78,41.48-70.32,10.25-14.03,25.53-35.48,43.56-62.95v.24c18.02,27.46,33.29,48.9,43.54,62.92,25.23,34.54,36.26,46.5,41.48,70.32,1.65,7.52,5.5,26.02,0,47.85Z"/>
  <path class="cls-7" d="M172.92,1509.44c-6.82,27.06-22.3,36.57-52.38,75.63-9.9,12.85-21.12,28.57-32.66,47.2v-.24c-11.54-18.62-22.76-34.33-32.65-47.17-30.08-39.07-45.56-48.57-52.38-75.63-5.5-21.82-1.65-40.33,0-47.84,5.22-23.83,16.25-35.78,41.48-70.32,10.25-14.03,25.53-35.48,43.56-62.95v.24c18.02,27.46,33.29,48.9,43.54,62.92,25.23,34.54,36.26,46.5,41.48,70.32,1.65,7.52,5.5,26.02,0,47.84Z"/>
  <path class="cls-6" d="M436.98,1509.44c-6.82,27.06-22.3,36.57-52.38,75.63-9.89,12.85-21.11,28.57-32.66,47.2v-.24c-11.54-18.62-22.76-34.33-32.65-47.17-30.08-39.07-45.56-48.57-52.38-75.63-5.5-21.82-1.65-40.33,0-47.84,5.22-23.83,16.25-35.78,41.48-70.32,10.25-14.03,25.53-35.48,43.56-62.95v.24c18.02,27.46,33.29,48.9,43.54,62.92,25.23,34.54,36.26,46.5,41.48,70.32,1.65,7.52,5.5,26.02,0,47.84Z"/>
  <path class="cls-5" d="M133.53,1633.84h172.74c-.46-2.73-.95-4.98-1.32-6.68-4.45-20.29-13.11-31.97-31.17-56.33-3.14-4.24-6.57-8.87-10.32-13.99-10.24-14.02-25.52-35.46-43.54-62.92v-.24c-18.03,27.48-33.31,48.92-43.56,62.95-3.74,5.12-7.17,9.75-10.32,13.99-18.06,24.36-26.72,36.04-31.17,56.33-.38,1.74-.88,4.07-1.35,6.89Z"/>
  <path class="cls-3" d="M172.91,183.33c-6.82,27.06-22.3,36.57-52.38,75.63-9.89,12.85-21.12,28.57-32.66,47.2v-.24c-11.54-18.62-22.76-34.33-32.65-47.17C25.15,219.69,9.67,210.18,2.85,183.12c-5.5-21.82-1.65-40.33,0-47.85,5.22-23.83,16.25-35.78,41.48-70.32,10.25-14.03,25.53-35.48,43.56-62.95v.24c18.02,27.46,33.3,48.9,43.54,62.93,25.23,34.54,36.26,46.5,41.48,70.32,1.65,7.52,5.5,26.02,0,47.85Z"/>
  <path class="cls-7" d="M304.95,348.9c-6.82,27.06-22.3,36.57-52.38,75.63-9.9,12.85-21.12,28.57-32.66,47.2v-.24c-11.54-18.62-22.76-34.33-32.65-47.17-30.08-39.07-45.56-48.57-52.38-75.63-5.5-21.82-1.65-40.33,0-47.84,5.23-23.83,16.25-35.78,41.48-70.32,10.25-14.03,25.53-35.48,43.56-62.95v.24c18.02,27.46,33.3,48.9,43.54,62.93,25.23,34.54,36.26,46.5,41.48,70.32,1.65,7.52,5.5,26.02,0,47.85Z"/>
  <path class="cls-6" d="M436.98,183.33c-6.82,27.06-22.3,36.57-52.38,75.63-9.89,12.85-21.11,28.57-32.66,47.2v-.24c-11.54-18.62-22.76-34.33-32.65-47.17-30.08-39.07-45.56-48.57-52.38-75.63-5.5-21.82-1.65-40.33,0-47.85,5.22-23.83,16.25-35.78,41.48-70.32,10.25-14.03,25.53-35.48,43.56-62.95v.24c18.02,27.46,33.29,48.9,43.54,62.93,25.23,34.54,36.26,46.5,41.48,70.32,1.65,7.52,5.5,26.02,0,47.85Z"/>
  <path class="cls-4" d="M172.91,514.46c-6.82,27.06-22.3,36.57-52.38,75.63-9.89,12.85-21.12,28.57-32.66,47.2v-.24c-11.54-18.62-22.76-34.33-32.65-47.17-30.08-39.07-45.56-48.57-52.38-75.63-5.5-21.82-1.65-40.33,0-47.85,5.22-23.83,16.25-35.78,41.48-70.32,10.25-14.03,25.53-35.48,43.56-62.95v.24c18.02,27.46,33.3,48.9,43.54,62.93,25.23,34.54,36.26,46.5,41.48,70.32,1.65,7.52,5.5,26.02,0,47.84Z"/>
  <path class="cls-3" d="M304.95,680.03c-6.82,27.06-22.3,36.57-52.38,75.63-9.9,12.85-21.12,28.57-32.66,47.2v-.24c-11.54-18.62-22.76-34.33-32.65-47.17-30.08-39.07-45.56-48.57-52.38-75.63-5.5-21.82-1.65-40.33,0-47.84,5.23-23.83,16.25-35.78,41.48-70.32,10.25-14.03,25.53-35.48,43.56-62.95v.24c18.02,27.46,33.3,48.9,43.54,62.93,25.23,34.54,36.26,46.49,41.48,70.32,1.65,7.52,5.5,26.02,0,47.84Z"/>
  <path class="cls-1" d="M436.98,514.46c-6.82,27.06-22.3,36.57-52.38,75.63-9.89,12.85-21.11,28.57-32.66,47.2v-.24c-11.54-18.62-22.76-34.33-32.65-47.17-30.08-39.07-45.56-48.57-52.38-75.63-5.5-21.82-1.65-40.33,0-47.85,5.22-23.83,16.25-35.78,41.48-70.32,10.25-14.03,25.53-35.48,43.56-62.95v.24c18.02,27.46,33.29,48.9,43.54,62.93,25.23,34.54,36.26,46.5,41.48,70.32,1.65,7.52,5.5,26.02,0,47.84Z"/>
  <path class="cls-7" d="M172.91,845.6c-6.82,27.06-22.3,36.57-52.38,75.63-9.89,12.85-21.12,28.57-32.66,47.2v-.24c-11.54-18.62-22.76-34.33-32.65-47.17-30.08-39.07-45.56-48.57-52.38-75.63-5.5-21.82-1.65-40.33,0-47.84,5.22-23.83,16.25-35.78,41.48-70.32,10.25-14.03,25.53-35.48,43.56-62.95v.24c18.02,27.46,33.3,48.9,43.54,62.93,25.23,34.54,36.26,46.5,41.48,70.32,1.65,7.52,5.5,26.02,0,47.84Z"/>
  <path class="cls-6" d="M436.98,845.6c-6.82,27.06-22.3,36.57-52.38,75.63-9.89,12.85-21.11,28.57-32.66,47.2v-.24c-11.54-18.62-22.76-34.33-32.65-47.17-30.08-39.07-45.56-48.57-52.38-75.63-5.5-21.82-1.65-40.33,0-47.84,5.22-23.83,16.25-35.78,41.48-70.32,10.25-14.03,25.53-35.48,43.56-62.95v.24c18.02,27.46,33.29,48.9,43.54,62.93,25.23,34.54,36.26,46.5,41.48,70.32,1.65,7.52,5.5,26.02,0,47.84Z"/>
  <path class="cls-2" d="M304.82,.15l-172.74-.15c.46,2.73,.94,4.98,1.31,6.68,4.43,20.3,13.08,31.98,31.12,56.36,3.14,4.24,6.57,8.87,10.31,14,10.23,14.03,25.49,35.48,43.49,62.96v.24c18.05-27.46,33.35-48.89,43.61-62.91,3.75-5.12,7.18-9.74,10.33-13.98,18.08-24.34,26.75-36.01,31.21-56.3,.38-1.74,.88-4.07,1.36-6.89Z"/>
  <path class="cls-1" d="M304.95,1012.74c-6.82,27.06-22.3,36.57-52.38,75.63-9.89,12.85-21.11,28.57-32.66,47.2v-.24c-11.54-18.62-22.76-34.33-32.65-47.17-30.08-39.07-45.56-48.57-52.38-75.63-5.5-21.82-1.65-40.33,0-47.84,5.22-23.83,16.25-35.78,41.48-70.32,10.25-14.03,25.53-35.48,43.56-62.95v.24c18.02,27.46,33.29,48.9,43.54,62.93,25.23,34.54,36.26,46.5,41.48,70.32,1.65,7.52,5.5,26.02,0,47.85Z"/>
</svg>