<?xml version="1.0" encoding="UTF-8"?>
<svg id="Calque_1" data-name="Calque 1" xmlns="http://www.w3.org/2000/svg" viewBox="0 0 175.77 304.17">
  <defs>
    <style>
      .cls-1 {
        fill: #0c2941;
      }
    </style>
  </defs>
  <path class="cls-1" d="M172.91,181.33c-6.82,27.06-22.3,36.57-52.38,75.63-9.89,12.85-21.12,28.57-32.66,47.2v-.24c-11.54-18.62-22.76-34.33-32.65-47.17C25.15,217.69,9.67,208.18,2.85,181.12c-5.5-21.82-1.65-40.33,0-47.84,5.22-23.83,16.25-35.78,41.48-70.32C54.58,48.92,69.87,27.47,87.89,0V.24c18.02,27.46,33.29,48.9,43.54,62.93,25.23,34.54,36.26,46.5,41.48,70.32,1.65,7.52,5.5,26.02,0,47.85Z"/>
</svg>