<?xml version="1.0" encoding="UTF-8"?>
<svg id="Calque_1" data-name="Calque 1" xmlns="http://www.w3.org/2000/svg" xmlns:xlink="http://www.w3.org/1999/xlink" viewBox="0 0 703.88 306.17">
  <defs>
    <style>
      .cls-1, .cls-2 {
        fill: #337d8a;
      }

      .cls-3 {
        mask: url(#mask-2);
      }

      .cls-4 {
        mask: url(#mask-3);
      }

      .cls-5, .cls-2, .cls-6 {
        fill-rule: evenodd;
      }

      .cls-5, .cls-7 {
        fill: #5ab1c0;
      }

      .cls-8 {
        fill: #ebd19b;
      }

      .cls-6, .cls-9 {
        fill: #e5bf6d;
      }

      .cls-10 {
        mask: url(#mask-4);
      }

      .cls-11 {
        mask: url(#mask-1);
      }

      .cls-12 {
        mask: url(#mask);
      }

      .cls-13 {
        fill: #d9d9d9;
      }
    </style>
    <mask id="mask" x="-127.12" y="0" width="319" height="306.17" maskUnits="userSpaceOnUse">
      <g id="mask0_272_100" data-name="mask0 272 100">
        <path class="cls-8" d="m45.8,183.33c-6.82,27.06-22.3,36.57-52.38,75.63-9.9,12.85-21.11,28.57-32.66,47.2v-.24c-11.54-18.62-22.76-34.33-32.65-47.17-30.08-39.07-45.56-48.57-52.38-75.63-5.5-21.82-1.65-40.33,0-47.85,5.22-23.83,16.25-35.78,41.48-70.32,10.25-14.03,25.53-35.48,43.56-62.95v.24C-21.21,29.7-5.93,51.14,4.32,65.16c25.23,34.54,36.26,46.5,41.48,70.32,1.65,7.52,5.5,26.02,0,47.85Z"/>
      </g>
    </mask>
    <mask id="mask-1" x="548.88" y=".46" width="287.01" height="305.71" maskUnits="userSpaceOnUse">
      <g id="mask1_272_100" data-name="mask1 272 100">
        <path class="cls-7" d="m833.03,183.33c-6.82,27.06-22.3,36.57-52.38,75.63-9.9,12.85-21.11,28.57-32.66,47.2v-.24c-11.54-18.62-22.76-34.33-32.65-47.17-30.08-39.07-45.56-48.57-52.38-75.63-5.5-21.82-1.65-40.33,0-47.85,5.23-23.83,16.25-35.78,41.48-70.32,10.25-14.03,25.53-35.48,43.56-62.95v.24c18.02,27.46,33.29,48.9,43.54,62.93,25.23,34.54,36.26,46.5,41.48,70.32,1.65,7.52,5.5,26.02,0,47.84Z"/>
      </g>
    </mask>
    <mask id="mask-2" x="-.05" y="92" width="703.93" height="379.73" maskUnits="userSpaceOnUse">
      <g id="mask2_272_100" data-name="mask2 272 100">
        <path class="cls-7" d="m172.86,348.9c-6.82,27.06-22.3,36.57-52.38,75.63-9.9,12.85-21.12,28.57-32.66,47.2v-.24c-11.54-18.62-22.76-34.33-32.65-47.17-30.08-39.07-45.56-48.57-52.38-75.63-5.5-21.82-1.65-40.33,0-47.84,5.23-23.83,16.25-35.78,41.48-70.32,10.25-14.03,25.53-35.48,43.56-62.95v.24c18.02,27.46,33.3,48.9,43.54,62.93,25.23,34.54,36.26,46.5,41.48,70.32,1.65,7.52,5.5,26.02,0,47.85Z"/>
      </g>
    </mask>
    <mask id="mask-3" x="173.82" y="92.43" width="530.06" height="379.74" maskUnits="userSpaceOnUse">
      <g id="mask3_272_100" data-name="mask3 272 100">
        <path class="cls-13" d="m436.8,349.33c-6.82,27.06-22.3,36.57-52.38,75.63-9.89,12.85-21.11,28.57-32.66,47.2v-.24c-11.54-18.62-22.76-34.33-32.64-47.17-30.08-39.07-45.56-48.57-52.38-75.63-5.5-21.82-1.65-40.33,0-47.85,5.23-23.83,16.25-35.78,41.48-70.32,10.25-14.03,25.53-35.48,43.56-62.95v.24c18.02,27.46,33.3,48.9,43.54,62.93,25.23,34.54,36.26,46.5,41.48,70.32,1.65,7.52,5.5,26.02,0,47.84Z"/>
      </g>
    </mask>
    <mask id="mask-4" x="437.82" y="92.43" width="266.06" height="379.74" maskUnits="userSpaceOnUse">
      <g id="mask4_272_100" data-name="mask4 272 100">
        <path class="cls-7" d="m700.8,349.33c-6.82,27.06-22.3,36.57-52.38,75.63-9.9,12.85-21.12,28.57-32.66,47.2v-.24c-11.54-18.62-22.76-34.33-32.65-47.17-30.08-39.07-45.56-48.57-52.38-75.63-5.5-21.82-1.65-40.33,0-47.85,5.23-23.83,16.25-35.78,41.48-70.32,10.25-14.03,25.53-35.48,43.56-62.95v.24c18.02,27.46,33.29,48.9,43.54,62.93,25.23,34.54,36.26,46.5,41.48,70.32,1.65,7.52,5.5,26.02,0,47.84Z"/>
      </g>
    </mask>
  </defs>
  <path class="cls-9" d="m304.9,183.33c-6.82,27.06-22.3,36.57-52.38,75.63-9.32,12.12-19.83,26.79-30.68,44.04-.09.14-.18.28-.27.43-.57.9-1.14,1.82-1.71,2.74v-.24c-.52-.84-1.04-1.68-1.56-2.5-.09-.15-.18-.29-.27-.43-9.12-14.51-18-27.2-26.15-38.08-1.58-2.12-3.14-4.18-4.67-6.16-4.83-6.28-9.29-11.8-13.39-16.74-21.44-25.84-33.26-36.19-38.98-58.9-5.5-21.82-1.65-40.33,0-47.84,3.57-16.31,9.86-27.05,21.57-43.28,5.4-7.49,11.95-16.14,19.91-27.05,4.35-5.94,9.59-13.21,15.56-21.71,8.13-11.56,17.61-25.4,28-41.24v.24c18.02,27.46,33.29,48.9,43.54,62.92,7.89,10.81,14.39,19.4,19.76,26.84.11.15.21.29.31.43,11.6,16.11,17.85,26.83,21.41,43.06,1.65,7.51,5.5,26.02,0,47.84Z"/>
  <path class="cls-1" d="m568.97,183.33c-6.82,27.06-22.3,36.57-52.38,75.63-9.9,12.85-21.11,28.57-32.66,47.2v-.24c-11.54-18.62-22.76-34.33-32.65-47.17-30.08-39.07-45.56-48.57-52.38-75.63-5.5-21.82-1.65-40.33,0-47.85,5.22-23.83,16.25-35.78,41.48-70.32,10.25-14.03,25.53-35.48,43.56-62.95v.24c18.02,27.46,33.29,48.9,43.54,62.93,25.23,34.54,36.26,46.5,41.48,70.32,1.65,7.52,5.5,26.02,0,47.84Z"/>
  <path class="cls-6" d="m701.91.59c-.47,2.82-.97,5.15-1.36,6.89-4.46,20.29-13.13,31.96-31.21,56.3-3.15,4.24-6.58,8.86-10.33,13.99-3.01,4.12-6.46,8.87-10.28,14.23-.1.14-.21.29-.3.43-9.15,12.83-20.42,29.07-33.03,48.25v-.24c-12.48-19.06-23.64-35.22-32.73-48.01-.1-.14-.2-.29-.3-.43-3.9-5.48-7.4-10.33-10.46-14.52-3.73-5.13-7.16-9.76-10.3-14-4.9-6.62-9.11-12.31-12.73-17.49-9.7-13.87-15.16-24.09-18.39-38.87-.37-1.7-.85-3.95-1.31-6.68l19.7.02,153.03.13Z"/>
  <path class="cls-5" d="m437.3.37l-172.68-.15c.45,2.65.92,4.85,1.29,6.52,4.43,20.3,13.08,31.98,31.12,56.36,3.14,4.24,6.57,8.87,10.31,14,10.23,14.03,25.49,35.48,43.49,62.96v.24c18.05-27.46,33.35-48.89,43.61-62.91,3.75-5.12,7.18-9.74,10.33-13.98,18.08-24.34,26.75-36.01,31.21-56.3.38-1.71.86-3.98,1.33-6.72Z"/>
  <path class="cls-2" d="m172.74.15c-.48,2.82-.98,5.15-1.36,6.89-4.47,20.29-13.14,31.96-31.21,56.3-3.15,4.24-6.59,8.86-10.33,13.98-3.09,4.23-6.65,9.14-10.59,14.68-9.15,12.83-20.41,29.06-33.02,48.24v-.24c-12.48-19.05-23.64-35.21-32.73-48-4.01-5.66-7.63-10.65-10.76-14.96-3.74-5.13-7.16-9.76-10.3-14C15.13,39.65,6.46,27.94,1.88,9.09c-.2-.79-.38-1.59-.56-2.41C.95,4.98.47,2.73,0,0h1.88l170.86.15Z"/>
  <g class="cls-12">
    <path class="cls-13" d="m191.88,43.24v260.19h-18.06v-.43H1.88V0l170.86.15c-.48,2.82-.98,5.15-1.36,6.89-4.47,20.29-13.14,31.96-31.21,56.3-3.15,4.24-6.59,8.86-10.33,13.98-3.09,4.23-6.65,9.14-10.59,14.68h37.16c5.4-7.49,11.95-16.14,19.91-27.05,4.35-5.94,9.59-13.21,15.56-21.71Z"/>
  </g>
  <g class="cls-11">
    <path class="cls-13" d="m703.88,92v211.43h-155V.46l153.03.13c-.47,2.82-.97,5.15-1.36,6.89-4.46,20.29-13.13,31.96-31.21,56.3-3.15,4.24-6.58,8.86-10.33,13.99-3.01,4.12-6.46,8.87-10.28,14.23h55.15Z"/>
  </g>
  <g class="cls-3">
    <rect class="cls-7" x="1.88" y="92" width="702" height="211"/>
  </g>
  <g class="cls-4">
    <rect class="cls-13" x="173.82" y="92.43" width="530.06" height="211"/>
  </g>
  <g class="cls-10">
    <rect class="cls-7" x="437.82" y="92.43" width="266.06" height="211"/>
  </g>
</svg>