<?xml version="1.0" encoding="UTF-8"?>
<svg id="Calque_1" data-name="Calque 1" xmlns="http://www.w3.org/2000/svg" viewBox="0 0 307.8 961.43">
  <defs>
    <style>
      .cls-1 {
        fill: #337d8a;
      }

      .cls-2 {
        fill: #0c2941;
      }

      .cls-3 {
        fill: #ebd19b;
      }

      .cls-4 {
        fill: #e5bf6d;
      }

      .cls-5 {
        fill: #5ab1c0;
      }
    </style>
  </defs>
  <path class="cls-5" d="M172.91,341.9c-6.82,27.06-22.3,36.57-52.38,75.63-9.9,12.85-21.11,28.57-32.66,47.2v-.24c-11.54-18.62-22.76-34.33-32.65-47.17-30.08-39.07-45.56-48.57-52.38-75.63-5.5-21.82-1.65-40.33,0-47.84,5.22-23.83,16.25-35.78,41.48-70.32,10.25-14.03,25.53-35.48,43.56-62.95v.24c18.02,27.46,33.29,48.9,43.54,62.93,25.23,34.54,36.26,46.5,41.48,70.32,1.65,7.52,5.5,26.02,0,47.85Z"/>
  <path class="cls-3" d="M304.95,181.33c-6.82,27.06-22.3,36.57-52.38,75.63-9.9,12.85-21.12,28.57-32.66,47.2v-.24c-11.54-18.62-22.76-34.33-32.65-47.17-30.08-39.07-45.56-48.57-52.38-75.63-5.5-21.82-1.65-40.33,0-47.85,5.22-23.83,16.25-35.78,41.48-70.32,10.25-14.03,25.53-35.48,43.56-62.95V.24c18.02,27.46,33.29,48.9,43.54,62.93,25.23,34.54,36.26,46.5,41.48,70.32,1.65,7.52,5.5,26.02,0,47.85Z"/>
  <path class="cls-2" d="M172.91,673.03c-6.82,27.06-22.3,36.57-52.38,75.63-9.9,12.85-21.11,28.57-32.66,47.2v-.24c-11.54-18.62-22.76-34.33-32.65-47.17-30.08-39.07-45.56-48.57-52.38-75.63-5.5-21.82-1.65-40.33,0-47.85,5.22-23.83,16.25-35.78,41.48-70.32,10.25-14.03,25.53-35.48,43.56-62.95v.24c18.02,27.46,33.29,48.9,43.54,62.93,25.23,34.54,36.26,46.49,41.48,70.32,1.65,7.52,5.5,26.02,0,47.85Z"/>
  <path class="cls-1" d="M304.95,507.46c-6.82,27.06-22.3,36.57-52.38,75.63-9.9,12.85-21.12,28.57-32.66,47.2v-.24c-11.54-18.62-22.76-34.33-32.65-47.17-30.08-39.07-45.56-48.57-52.38-75.63-5.5-21.82-1.65-40.33,0-47.85,5.22-23.83,16.25-35.78,41.48-70.32,10.25-14.03,25.53-35.48,43.56-62.95v.24c18.02,27.46,33.29,48.9,43.54,62.92,25.23,34.54,36.26,46.5,41.48,70.32,1.65,7.52,5.5,26.02,0,47.85Z"/>
  <path class="cls-4" d="M304.95,838.6c-6.82,27.06-22.3,36.57-52.38,75.63-9.9,12.85-21.12,28.57-32.66,47.2v-.24c-11.54-18.62-22.76-34.33-32.65-47.17-30.08-39.07-45.56-48.57-52.38-75.63-5.5-21.82-1.65-40.33,0-47.84,5.22-23.83,16.25-35.78,41.48-70.32,10.25-14.03,25.53-35.48,43.56-62.95v.24c18.02,27.46,33.29,48.9,43.54,62.92,25.23,34.54,36.26,46.5,41.48,70.32,1.65,7.52,5.5,26.02,0,47.84Z"/>
</svg>