<?xml version="1.0" encoding="UTF-8"?>
<svg id="Calque_1" data-name="Calque 1" xmlns="http://www.w3.org/2000/svg" viewBox="0 0 880.04 317.65">
  <defs>
    <style>
      .cls-1 {
        fill: #337d8a;
      }

      .cls-2 {
        fill: #0c2941;
      }

      .cls-3 {
        fill: #ebd19b;
      }

      .cls-4 {
        fill: #e5bf6d;
      }

      .cls-5 {
        fill: #5ab1c0;
      }
    </style>
  </defs>
  <path class="cls-5" d="m436.94,29.24c-6.82,27.07-22.3,36.57-52.38,75.64-9.89,12.85-21.11,28.57-32.66,47.2v-.24c-11.54-18.62-22.76-34.33-32.65-47.17-30.07-39.07-45.56-48.57-52.37-75.64-2.72-10.8-3.15-20.79-2.69-29.03h175.43c.48,8.28.07,18.35-2.68,29.24Z"/>
  <path class="cls-4" d="m172.91,29.24c-6.82,27.07-22.3,36.57-52.38,75.64-9.89,12.85-21.11,28.57-32.66,47.2v-.24c-11.54-18.62-22.76-34.33-32.65-47.17C25.14,65.6,9.66,56.1,2.85,29.03.13,18.23-.3,8.24.16,0h175.43c.48,8.28.07,18.35-2.68,29.24Z"/>
  <path class="cls-2" d="m701.01,29.24c-6.82,27.07-22.3,36.57-52.38,75.64-9.89,12.85-21.11,28.57-32.66,47.2v-.24c-11.55-18.62-22.76-34.33-32.65-47.17-30.08-39.07-45.56-48.57-52.38-75.64-2.72-10.8-3.15-20.79-2.69-29.03h175.44c.47,8.28.06,18.35-2.68,29.24Z"/>
  <path class="cls-3" d="m880.04,0v152.06s-.01.01-.01.02v-.24c-11.54-18.62-22.75-34.33-32.64-47.17-30.08-39.07-45.56-48.57-52.38-75.64-2.72-10.8-3.15-20.79-2.69-29.03h87.72Z"/>
  <path class="cls-3" d="m304.91,194.81c-6.82,27.06-22.3,36.57-52.38,75.63-9.89,12.85-21.11,28.57-32.66,47.2v-.24c-11.54-18.62-22.76-34.33-32.64-47.17-30.08-39.07-45.56-48.57-52.38-75.63-5.5-21.82-1.65-40.33,0-47.84,5.22-23.83,16.25-35.78,41.48-70.32,10.25-14.03,25.53-35.48,43.56-62.95v.24c18.02,27.46,33.29,48.9,43.54,62.93,25.23,34.54,36.26,46.5,41.48,70.32,1.65,7.52,5.5,26.02,0,47.85Z"/>
  <path class="cls-1" d="m568.97,194.81c-6.82,27.06-22.3,36.57-52.38,75.63-9.89,12.85-21.11,28.57-32.66,47.2v-.24c-11.54-18.62-22.76-34.33-32.65-47.17-30.08-39.07-45.56-48.57-52.38-75.63-5.5-21.82-1.65-40.33,0-47.84,5.23-23.83,16.25-35.78,41.48-70.32,10.25-14.03,25.53-35.48,43.56-62.95v.24c18.02,27.46,33.3,48.9,43.54,62.93,25.23,34.54,36.26,46.5,41.48,70.32,1.65,7.52,5.5,26.02,0,47.85Z"/>
  <path class="cls-4" d="m833.04,194.81c-6.82,27.06-22.3,36.57-52.38,75.63-9.9,12.85-21.11,28.57-32.66,47.2v-.24c-11.54-18.62-22.76-34.33-32.65-47.17-30.08-39.07-45.56-48.57-52.38-75.63-5.5-21.82-1.65-40.33,0-47.84,5.22-23.83,16.25-35.78,41.48-70.32,10.25-14.03,25.53-35.48,43.56-62.95v.24c18.02,27.46,33.29,48.9,43.54,62.93,25.23,34.54,36.26,46.5,41.48,70.32,1.65,7.52,5.5,26.02,0,47.85Z"/>
</svg>